<?xml version="1.0" standalone="no"?><!DOCTYPE svg PUBLIC "-//W3C//DTD SVG 1.1//EN" "http://www.w3.org/Graphics/SVG/1.1/DTD/svg11.dtd"><svg t="1743923741353" class="icon" viewBox="0 0 1024 1024" version="1.1" xmlns="http://www.w3.org/2000/svg" p-id="1806" xmlns:xlink="http://www.w3.org/1999/xlink" width="200" height="200"><path d="M460.035 84.005c31.143-22.024 72.787-22.024 103.93 0l302 213.57A90 90 0 0 1 904 371.055V870c0 49.706-40.294 90-90 90H210c-49.706 0-90-40.294-90-90V371.056a90 90 0 0 1 38.035-73.482z m69.287 48.988a30 30 0 0 0-34.644 0l-302 213.57A30 30 0 0 0 180 371.055V870c0 16.569 13.431 30 30 30h604c16.569 0 30-13.431 30-30V371.056a30 30 0 0 0-12.678-24.494zM512 494c85.604 0 155 69.396 155 155s-69.396 155-155 155-155-69.396-155-155 69.396-155 155-155z m0 60c-52.467 0-95 42.533-95 95s42.533 95 95 95 95-42.533 95-95-42.533-95-95-95z" fill="#000000" p-id="1807"></path></svg>