<?xml version="1.0" standalone="no"?><!DOCTYPE svg PUBLIC "-//W3C//DTD SVG 1.1//EN" "http://www.w3.org/Graphics/SVG/1.1/DTD/svg11.dtd"><svg t="1743924061536" class="icon" viewBox="0 0 1024 1024" version="1.1" xmlns="http://www.w3.org/2000/svg" p-id="1953" xmlns:xlink="http://www.w3.org/1999/xlink" width="200" height="200"><path d="M264.102 64c33.154 0 60.031 26.863 60.031 60v776c0 33.137-26.877 60-60.03 60H124.03C90.877 960 64 933.137 64 900V124c0-33.137 26.877-60 60.03-60z m276.141 0c33.155 0 60.031 26.863 60.031 60l-0.001 31.903c5.412-23.531 24.825-42.428 50.172-45.99l138.709-19.495c32.831-4.614 63.185 18.247 67.797 51.062l102.431 728.837c4.612 32.814-18.265 63.156-51.096 67.77l-138.708 19.495c-32.832 4.614-63.185-18.247-67.797-51.062L600.274 184.265V900c0 32.806-26.342 59.462-59.038 59.992l-0.993 0.008H400.172c-33.154 0-60.03-26.863-60.03-60V124c0-33.137 26.876-60 60.03-60z m-276.14 60H124.03v776h140.071V124z m276.14 0H400.172v776h140.071V124z m257.261 25.834l-138.708 19.494 102.431 728.838 138.709-19.494-102.432-728.838zM194.066 770c22.103 0 40.021 17.909 40.021 40s-17.918 40-40.02 40c-22.103 0-40.021-17.909-40.021-40s17.918-40 40.02-40z m276.142 0c22.102 0 40.02 17.909 40.02 40s-17.918 40-40.02 40c-22.103 0-40.02-17.909-40.02-40s17.917-40 40.02-40z m349.178-15c22.103 0 40.02 17.909 40.02 40s-17.917 40-40.02 40-40.02-17.909-40.02-40 17.917-40 40.02-40z" fill="#000000" p-id="1954"></path></svg>