<?xml version="1.0" standalone="no"?><!DOCTYPE svg PUBLIC "-//W3C//DTD SVG 1.1//EN" "http://www.w3.org/Graphics/SVG/1.1/DTD/svg11.dtd"><svg t="1742458499877" class="icon" viewBox="0 0 1024 1024" version="1.1" xmlns="http://www.w3.org/2000/svg" p-id="6158" xmlns:xlink="http://www.w3.org/1999/xlink" width="200" height="200"><path d="M669.993541 0H258.712711c-60.08425 0-108.98633 48.936062-108.986329 108.984206v403.014732h-10.646955c-24.250334 0-43.915236 19.647911-43.915236 43.919484v266.341648c0 24.267325 19.664902 43.915236 43.915236 43.915236h10.646955v48.83624c0 60.118231 48.90208 108.98633 108.986329 108.98633h561.17075c60.052392 0 108.954472-48.870222 108.954472-108.98633V257.941747L669.993541 0zM142.711243 774.696027v-161.806947h36.751426v62.189003h60.25416v-62.189003h36.483819v161.806947h-36.483819V707.014699h-60.25416v67.681328H142.711243z m677.170094 182.559271h-561.168626c-23.266983 0-42.209769-18.94491-42.209769-42.243752v-48.83624H739.616086c24.250334 0 43.919484-19.647911 43.919484-43.915236V555.918422c0-24.271573-19.669149-43.919484-43.919484-43.919484H216.502942V108.984206c0-23.228754 18.942786-42.173664 42.209769-42.173664l386.310504-0.401411v142.794074c0 41.708536 33.841726 75.582121 75.577873 75.58212l139.884374-0.401411 1.571663 630.627632c0.002124 23.298841-18.910928 42.243751-42.175788 42.243752z m-524.064637-313.642332v-30.723886h124.350397v30.723886h-44.184967v131.083061h-36.721693v-131.083061h-43.443737z m139.143144 131.083061l10.311383-161.806947h48.738542l15.831318 54.022728c5.054808 18.713408 10.107492 38.896534 13.690459 57.83932h0.736982c4.551451-18.711285 10.075634-40.064662 15.364068-58.072946l17.273425-53.789102h47.763686l8.905382 161.806947h-35.785066l-2.410591-61.925643c-0.700877-19.448267-1.439983-42.97861-1.439983-66.508953h-0.703001c-5.052684 20.652501-11.7811 43.68161-18.008284 62.660502l-19.681892 63.132002h-28.585151l-17.271301-62.662627c-5.290557-18.94491-10.810492-42.008002-14.661067-63.129877h-0.469375c-0.970608 21.858858-1.673609 46.82706-2.877842 66.978328l-2.877842 61.456268h-33.84385z m307.648773-30.728134v30.728134h-101.087661v-161.806947h36.755674v131.078813h64.331987z" p-id="6159"></path></svg>