<?xml version="1.0" standalone="no"?><!DOCTYPE svg PUBLIC "-//W3C//DTD SVG 1.1//EN" "http://www.w3.org/Graphics/SVG/1.1/DTD/svg11.dtd"><svg t="1743755304228" class="icon" viewBox="0 0 1024 1024" version="1.1" xmlns="http://www.w3.org/2000/svg" p-id="3557" xmlns:xlink="http://www.w3.org/1999/xlink" width="200" height="200"><path d="M690.688 233.984l-52.608 52.5568 99.3536 99.3536 52.5824-52.5568a181.7088 181.7088 0 0 0-6.5536-18.4832c-7.6544-18.3808-17.92-35.1488-28.544-45.7728-10.624-10.624-27.392-20.8896-45.7984-28.544a181.504 181.504 0 0 0-18.432-6.5536z m-25.6512 224.3072l-99.3536-99.328-264.3968 264.3712c-32.0512 32.0512-51.0208 84.1728-61.1328 134.8608-2.176 10.8544-3.8656 21.248-5.1968 30.8224 9.6-1.3056 19.968-2.9952 30.7968-5.1712 50.6624-10.1376 102.8096-29.0816 134.912-61.184l264.3712-264.3456zM179.2 844.8l-51.2-0.0256v-0.8704l0.0256-1.8944a543.8208 543.8208 0 0 1 1.4592-29.312c1.4592-18.9696 4.3776-45.2608 10.24-74.5728 11.3408-56.6784 35.328-133.376 89.1648-187.2128L651.648 128.1792 672.6144 128c22.4768-0.1792 50.9184 7.6288 75.8272 17.9968 25.9328 10.752 55.6544 27.4688 78.8736 50.688 23.2192 23.1936 39.9104 52.9408 50.688 78.848 10.368 24.9344 18.176 53.376 17.9968 75.8528l-0.1792 20.9664L473.088 795.0848c-53.8624 53.8368-130.5344 77.824-187.2128 89.1648a631.3472 631.3472 0 0 1-97.3312 11.5456 362.24 362.24 0 0 1-6.528 0.1792h-1.8944L179.5328 896h-0.2816S179.2 896 179.2 844.8z m0 0v51.2H128v-51.2256L179.2 844.8z" p-id="3558"></path></svg>